<svg viewBox="0 0 600 400" xmlns="http://www.w3.org/2000/svg">
<g transform="translate(72, 364)">
<g>
<g>
<circle cx="80" cy="-56.666666666666664" fill="#000000" r="1"/>
<circle cx="160" cy="-113.33333333333333" fill="#000000" r="1"/>
<circle cx="240" cy="-170" fill="#000000" r="1"/>
<circle cx="320" cy="-226.66666666666666" fill="#000000" r="1"/>
</g>
</g>
<g>
<g>
<line stroke="black" stroke-width="1" x1="80" x2="80" y1="0" y2="10"/>
<line stroke="black" stroke-width="1" x1="240" x2="240" y1="0" y2="10"/>
<line stroke="black" stroke-width="1" x1="400" x2="400" y1="0" y2="10"/>
</g>
<line stroke="black" stroke-width="1" x1="0" x2="480" y1="0" y2="0"/>
<g>
<text font-size="12" text-anchor="middle" x="80" y="20">
-2
</text>
<text font-size="12" text-anchor="middle" x="240" y="20">
0
</text>
<text font-size="12" text-anchor="middle" x="400" y="20">
2
</text>
</g>
<text font-size="12" text-anchor="middle" x="240" y="30">
x
</text>
</g>
<g>
<g>
<line stroke="black" stroke-width="1" x1="0" x2="-10" y1="-56.666666666666664" y2="-56.666666666666664"/>
<line stroke="black" stroke-width="1" x1="0" x2="-10" y1="-170" y2="-170"/>
<line stroke="black" stroke-width="1" x1="0" x2="-10" y1="-283.3333333333333" y2="-283.3333333333333"/>
</g>
<line stroke="black" stroke-width="1" x1="0" x2="0" y1="0" y2="-340"/>
<g>
<text dominant-baseline="middle" font-size="12" text-anchor="end" x="-15" y="-56.666666666666664">
-2
</text>
<text dominant-baseline="middle" font-size="12" text-anchor="end" x="-15" y="-170">
0
</text>
<text dominant-baseline="middle" font-size="12" text-anchor="end" x="-15" y="-283.3333333333333">
2
</text>
</g>
<text font-size="12" text-anchor="middle" transform="rotate(-90 -24 -170)" x="-24" y="-182">
y
</text>
</g>
</g>
</svg>